<svg id="Layer_1" data-name="Layer 1" xmlns="http://www.w3.org/2000/svg" xmlns:xlink="http://www.w3.org/1999/xlink" viewBox="0 0 1024 1024"><defs><style>.cls-1{fill:#a7a9ac;}.cls-2{fill:#ffa400;}.cls-3{fill:url(#linear-gradient);}.cls-4{fill:#808285;}</style><linearGradient id="linear-gradient" x1="617.87" y1="-146.39" x2="822.43" y2="1234.39" gradientUnits="userSpaceOnUse"><stop offset="0.13" stop-color="#ffa400"/><stop offset="0.78" stop-color="#ff4d00"/></linearGradient></defs><title>icon 1024x1024</title><path class="cls-1" d="M588.55,677.5c-83,40.16-185.7,22.56-250.2-49.57S267.8,451.74,317,373.76l-56.52-63.2a292.71,292.71,0,0,0-49.85,105.25,57.7,57.7,0,0,1-6.12,109.51,292.78,292.78,0,0,0,39.67,113.29,57.69,57.69,0,0,1,73.11,81.76,292.66,292.66,0,0,0,108.18,52,57.69,57.69,0,0,1,109.5,6.12A292.72,292.72,0,0,0,645.07,740.7Z"/><path class="cls-2" d="M352.4,293.41l16.93,19.8c94.08-63.84,223.12-48.11,298.72,40.34s71.07,218.35-6.63,301.36l16.93,19.8c88.51-92.39,94.27-238.65,9.37-338S457.44,220.35,352.4,293.41Z"/><path class="cls-3" d="M521.22,33.74V157.12C706.08,169.94,852.1,323.87,852.1,512s-146,342.06-330.88,354.88V990.26C774.1,977.27,975.16,768.12,975.16,512S774.1,46.73,521.22,33.74Z"/><path class="cls-4" d="M460.61,903.94c-200.68-18-358-186.57-358-391.94s157.3-373.91,358-391.94V66.13C230.19,84.31,48.84,276.91,48.84,512S230.19,939.69,460.61,957.87Z"/></svg>