<svg id="Layer_1" data-name="Layer 1" xmlns="http://www.w3.org/2000/svg" xmlns:xlink="http://www.w3.org/1999/xlink" viewBox="0 0 16 16"><defs><style>.cls-1{fill:#a7a9ac;}.cls-2{fill:#ffa400;}.cls-3{fill:url(#linear-gradient);}.cls-4{fill:#808285;}</style><linearGradient id="linear-gradient" x1="9.67" y1="-2.41" x2="12.91" y2="19.43" gradientUnits="userSpaceOnUse"><stop offset="0.13" stop-color="#ffa400"/><stop offset="0.78" stop-color="#ff4d00"/></linearGradient></defs><title>icon 16x16</title><path class="cls-1" d="M9.21,10.62a3.36,3.36,0,0,1-4.3-4.81L4,4.81a4.74,4.74,0,0,0-.79,1.67.91.91,0,0,1-.09,1.73A4.72,4.72,0,0,0,3.76,10a.92.92,0,0,1,1.16,1.3,4.74,4.74,0,0,0,1.71.82.92.92,0,0,1,.9-.58.9.9,0,0,1,.83.68,4.57,4.57,0,0,0,1.74-.6Z"/><path class="cls-2" d="M5.48,4.54l.26.32a3.57,3.57,0,0,1,4.62,5.4l.27.31a4,4,0,0,0-5.15-6Z"/><path class="cls-3" d="M8.15.44v2a5.62,5.62,0,0,1,0,11.22v2A7.57,7.57,0,0,0,8.15.44Z"/><path class="cls-4" d="M7.19,14.2a6.22,6.22,0,0,1,0-12.4V1a7.07,7.07,0,0,0,0,14.1Z"/></svg>